<?xml version="1.0" encoding="UTF-8"?>
<svg id="Livello_1" data-name="Livello 1" xmlns="http://www.w3.org/2000/svg" viewBox="0 0 81.7 62.31">
  <defs>
    <style>
      .cls-1 {
        fill: #fff;
      }
    </style>
  </defs>
  <g>
    <path class="cls-1" d="M49.19,1.19l-19.11-.02h-15.87L1.17,9.92v13.44l12.74-8.6h.39v46.38h15.79V25.03l.45.19c-.14-.51-.32-1.01-.53-1.48-1.6-3.68-4.93-6.4-8.99-7.15l-2.7-.51,2.7-.5c4.98-.92,8.87-4.82,9.79-9.79l.5-2.7.5,2.7c.48,2.59,1.77,4.89,3.6,6.63.29.28.59.53.9.77.31.24.63.47.96.68,1.3.83,2.76,1.42,4.34,1.71l2.11.39.58.11-.77.14-1.93.36c-2.82.52-5.3,2-7.09,4.1h0c-.74.88-1.36,1.85-1.84,2.91-.16.35-.3.71-.43,1.09-.13.37-.23.74-.32,1.13l.4.17,1.12.47,3.08,1.3L55.1,2.42l.9-1.23h0s-6.81,0-6.81,0Z"/>
    <path class="cls-1" d="M56.2.02L13.86,0,0,9.3v16.26l13.13-8.86v45.61h18.11V28.72l-.23-1.25h0s-.2-1.1-.2-1.1c-.07-.39-.16-.78-.28-1.15-.14-.51-.32-1.01-.53-1.48l-1.09-.46v36.7h-13.45V13.6h-1.92l-11.22,7.57v-10.63L14.57,2.34h31.62s3.17.01,3.17.01h4.34s-.18.25-.18.25l-9.8,13.37.58.11-.77.14-7.4,10.09-2.54-1.07-1.11-.47-.24-.1c-.13.37-.23.74-.32,1.13-.05.19-.09.37-.12.56l-.11.6.51.21,1.13.47,3.6,1.52L56.6,2.34l.86-1.17.84-1.14h-2.1Z"/>
  </g>
  <g>
    <path class="cls-1" d="M65.18,35.88c-.8-1.42-1.91-2.56-3.29-3.38-.92-.54-1.94-.91-3.05-1.1h-.77l.02.08c.07.35.14.69.24,1.02,1.09.14,2.08.47,2.97.99,1.21.72,2.17,1.7,2.87,2.95.66,1.18,1.01,2.53,1.05,4.01.38.16.77.31,1.17.44,0-.06,0-.12,0-.19,0-1.79-.4-3.41-1.2-4.83ZM64.88,43.25c-.17.6-.41,1.17-.71,1.71-.7,1.25-1.66,2.23-2.87,2.95-.64.38-1.33.66-2.08.84-.22.42-.41.85-.57,1.3,1.18-.17,2.26-.55,3.24-1.13,1.39-.82,2.49-1.95,3.29-3.38.49-.87.83-1.81,1.02-2.82-.45.15-.89.33-1.32.54ZM58.15,50.11h.47s.01-.04.02-.06c-.16.02-.33.04-.5.06ZM58.07,31.4l.02.08c.07.35.14.69.24,1.02,1.09.14,2.08.47,2.97.99,1.21.72,2.17,1.7,2.87,2.95.66,1.18,1.01,2.53,1.05,4.01.38.16.77.31,1.17.44.04.02.09.03.13.04v-9.54h-8.44ZM66.2,42.72c-.45.15-.89.33-1.32.54-.17.6-.41,1.17-.71,1.71-.7,1.25-1.66,2.23-2.87,2.95-.64.38-1.33.66-2.08.84-.22.42-.41.85-.57,1.3-.16.02-.33.04-.5.06h8.36v-7.49c-.1.03-.21.07-.31.1ZM58.07,31.4l.02.08c.07.35.14.69.24,1.02,1.09.14,2.08.47,2.97.99,1.21.72,2.17,1.7,2.87,2.95.66,1.18,1.01,2.53,1.05,4.01.38.16.77.31,1.17.44.04.02.09.03.13.04v-9.54h-8.44ZM66.2,42.72c-.45.15-.89.33-1.32.54-.17.6-.41,1.17-.71,1.71-.7,1.25-1.66,2.23-2.87,2.95-.64.38-1.33.66-2.08.84-.22.42-.41.85-.57,1.3-.16.02-.33.04-.5.06h8.36v-7.49c-.1.03-.21.07-.31.1ZM56.04,48.93c-1.1-.13-2.12-.47-3.05-1.01-1.23-.71-2.19-1.7-2.89-2.95-.37-.67-.65-1.38-.82-2.14-.13-.05-.26-.1-.4-.14v2.46c.06.13.13.26.2.38.8,1.43,1.92,2.57,3.32,3.38,1.12.65,2.35,1.05,3.67,1.19h.47c-.14-.4-.31-.8-.5-1.18ZM58.07,31.4l.02.08c.07.35.14.69.24,1.02,1.09.14,2.08.47,2.97.99,1.21.72,2.17,1.7,2.87,2.95.66,1.18,1.01,2.53,1.05,4.01.38.16.77.31,1.17.44.04.02.09.03.13.04v-9.54h-8.44ZM66.2,42.72c-.45.15-.89.33-1.32.54-.17.6-.41,1.17-.71,1.71-.7,1.25-1.66,2.23-2.87,2.95-.64.38-1.33.66-2.08.84-.22.42-.41.85-.57,1.3-.16.02-.33.04-.5.06h8.36v-7.49c-.1.03-.21.07-.31.1ZM56.04,48.93c-1.1-.13-2.12-.47-3.05-1.01-1.23-.71-2.19-1.7-2.89-2.95-.37-.67-.65-1.38-.82-2.14-.13-.05-.26-.1-.4-.14v2.46c.06.13.13.26.2.38.8,1.43,1.92,2.57,3.32,3.38,1.12.65,2.35,1.05,3.67,1.19h.47c-.14-.4-.31-.8-.5-1.18ZM58.07,31.4l.02.08c.07.35.14.69.24,1.02,1.09.14,2.08.47,2.97.99,1.21.72,2.17,1.7,2.87,2.95.66,1.18,1.01,2.53,1.05,4.01.38.16.77.31,1.17.44.04.02.09.03.13.04v-9.54h-8.44ZM64.88,43.25c-.17.6-.41,1.17-.71,1.71-.7,1.25-1.66,2.23-2.87,2.95-.64.38-1.33.66-2.08.84-.22.42-.41.85-.57,1.3-.16.02-.33.04-.5.06h8.36v-7.49c-.1.03-.21.07-.31.1-.45.15-.89.33-1.32.54ZM52.99,47.92c-1.23-.71-2.19-1.7-2.89-2.95-.37-.67-.65-1.38-.82-2.14-.13-.05-.26-.1-.4-.14v2.46c.06.13.13.26.2.38.8,1.43,1.92,2.57,3.32,3.38,1.12.65,2.35,1.05,3.67,1.19h.47c-.14-.4-.31-.8-.5-1.18-1.1-.13-2.12-.47-3.05-1.01ZM78.33,30.65c-1.47-2.77-3.53-4.95-6.17-6.55-2.65-1.59-5.74-2.38-9.28-2.38-2.19,0-4.28.34-6.27,1.02-1.99.68-3.73,1.65-5.22,2.93-1.15.99-2.08,2.12-2.79,3.4-.21.38-.4.77-.58,1.17h-.31c0-.4,0-.78.02-1.17.07-2.64.41-4.99,1-7.04.68-2.34,1.87-4.89,3.29-6.19,1.42-1.3,3.24-1.95,5.45-1.95,1.67,0,3.16.38,4.47,1.13,1.32.75,2.14,1.97,2.48,3.63l15.4.03c-.31-3.33-1.44-5.68-3.38-8.43-1.94-2.75-4.54-4.95-7.8-6.6-3.22-1.64-6.95-2.47-11.2-2.48h-.13c-.45,0-.89,0-1.33.03-2.35.1-4.57.49-6.64,1.15-.82.27-1.62.58-2.4.93-3.11,1.41-5.79,3.44-8.01,6.1-.98,1.17-1.85,2.44-2.63,3.82.31.24.63.47.96.68,1.3.83,2.76,1.42,4.34,1.71l2.11.39.58.11-.77.14-1.93.36c-2.82.52-5.3,2-7.09,4.1h0c-.74.88-1.36,1.85-1.84,2.91-.07.39-.14.78-.19,1.19-.06.39-.11.79-.16,1.2-.05.4-.09.8-.13,1.21-.13,1.46-.2,2.97-.2,4.53,0,5.29.67,9.79,2.01,13.5,1.34,3.71,3.18,6.73,5.51,9.05,2.33,2.32,5.02,4.01,8.07,5.08,3.05,1.07,6.26,1.6,9.65,1.6,4.58,0,8.62-.86,12.11-2.58,3.49-1.72,6.23-4.14,8.21-7.27,1.98-3.13,2.97-6.77,2.97-10.94,0-3.57-.74-6.74-2.21-9.51ZM67.88,42.28c-.07.01-.14.03-.2.04-.4.08-.78.17-1.17.3-.1.03-.21.07-.31.1-.45.15-.89.33-1.32.54-.17.6-.41,1.17-.71,1.71-.7,1.25-1.66,2.23-2.87,2.95-.64.38-1.33.66-2.08.84-.22.42-.41.85-.57,1.3-.16.02-.33.04-.5.06h.47c-.14.38-.26.77-.36,1.17-.07.26-.13.53-.18.8l-.07.37-.44,2.33-.44-2.33-.07-.37c-.05-.27-.11-.54-.18-.8-.1-.38-.21-.76-.35-1.13,0-.01,0-.02-.02-.04-.14-.4-.31-.8-.5-1.18-1.1-.13-2.12-.47-3.05-1.01-1.23-.71-2.19-1.7-2.89-2.95-.37-.67-.65-1.38-.82-2.14-.13-.05-.26-.1-.4-.14-.28-.1-.57-.18-.87-.25-.1-.03-.2-.05-.3-.07-.14-.04-.28-.06-.42-.09l-.74-.14-1.96-.37,1.96-.37.74-.14c.14-.03.28-.05.42-.09.06-.01.12-.02.17-.04.34-.08.67-.17.99-.28.05-.02.11-.03.16-.05v-.1c0-1.2.2-2.3.61-3.3.4-1,.97-1.88,1.7-2.62.73-.74,1.58-1.32,2.56-1.74.91-.39,1.9-.59,2.96-.62.08-.31.16-.63.21-.95l.02-.08.03-.14.19-1.03.21-1.17.05-.28.05.28.21,1.17.2,1.06.02.1.02.08c.07.35.14.69.24,1.02,1.09.14,2.08.47,2.97.99,1.21.72,2.17,1.7,2.87,2.95.66,1.18,1.01,2.53,1.05,4.01.38.16.77.31,1.17.44.04.02.09.03.13.04.38.12.77.22,1.17.3.07.02.14.03.2.04l.96.18,1.73.32-1.73.32-.96.18ZM56.04,48.93c-1.1-.13-2.12-.47-3.05-1.01-1.23-.71-2.19-1.7-2.89-2.95-.37-.67-.65-1.38-.82-2.14-.13-.05-.26-.1-.4-.14v2.46c.06.13.13.26.2.38.8,1.43,1.92,2.57,3.32,3.38,1.12.65,2.35,1.05,3.67,1.19h.47c-.14-.4-.31-.8-.5-1.18ZM66.2,42.72c-.45.15-.89.33-1.32.54-.17.6-.41,1.17-.71,1.71-.7,1.25-1.66,2.23-2.87,2.95-.64.38-1.33.66-2.08.84-.22.42-.41.85-.57,1.3-.16.02-.33.04-.5.06h8.36v-7.49c-.1.03-.21.07-.31.1ZM58.07,31.4l.02.08c.07.35.14.69.24,1.02,1.09.14,2.08.47,2.97.99,1.21.72,2.17,1.7,2.87,2.95.66,1.18,1.01,2.53,1.05,4.01.38.16.77.31,1.17.44.04.02.09.03.13.04v-9.54h-8.44ZM56.04,48.93c-1.1-.13-2.12-.47-3.05-1.01-1.23-.71-2.19-1.7-2.89-2.95-.37-.67-.65-1.38-.82-2.14-.13-.05-.26-.1-.4-.14v2.46c.06.13.13.26.2.38.8,1.43,1.92,2.57,3.32,3.38,1.12.65,2.35,1.05,3.67,1.19h.47c-.14-.4-.31-.8-.5-1.18ZM66.2,42.72c-.45.15-.89.33-1.32.54-.17.6-.41,1.17-.71,1.71-.7,1.25-1.66,2.23-2.87,2.95-.64.38-1.33.66-2.08.84-.22.42-.41.85-.57,1.3-.16.02-.33.04-.5.06h8.36v-7.49c-.1.03-.21.07-.31.1ZM58.07,31.4l.02.08c.07.35.14.69.24,1.02,1.09.14,2.08.47,2.97.99,1.21.72,2.17,1.7,2.87,2.95.66,1.18,1.01,2.53,1.05,4.01.38.16.77.31,1.17.44.04.02.09.03.13.04v-9.54h-8.44ZM56.04,48.93c-1.1-.13-2.12-.47-3.05-1.01-1.23-.71-2.19-1.7-2.89-2.95-.37-.67-.65-1.38-.82-2.14-.13-.05-.26-.1-.4-.14v2.46c.06.13.13.26.2.38.8,1.43,1.92,2.57,3.32,3.38,1.12.65,2.35,1.05,3.67,1.19h.47c-.14-.4-.31-.8-.5-1.18ZM66.2,42.72c-.45.15-.89.33-1.32.54-.17.6-.41,1.17-.71,1.71-.7,1.25-1.66,2.23-2.87,2.95-.64.38-1.33.66-2.08.84-.22.42-.41.85-.57,1.3-.16.02-.33.04-.5.06h8.36v-7.49c-.1.03-.21.07-.31.1ZM58.07,31.4l.02.08c.07.35.14.69.24,1.02,1.09.14,2.08.47,2.97.99,1.21.72,2.17,1.7,2.87,2.95.66,1.18,1.01,2.53,1.05,4.01.38.16.77.31,1.17.44.04.02.09.03.13.04v-9.54h-8.44ZM66.2,42.72c-.45.15-.89.33-1.32.54-.17.6-.41,1.17-.71,1.71-.7,1.25-1.66,2.23-2.87,2.95-.64.38-1.33.66-2.08.84-.22.42-.41.85-.57,1.3-.16.02-.33.04-.5.06h8.36v-7.49c-.1.03-.21.07-.31.1ZM58.07,31.4l.02.08c.07.35.14.69.24,1.02,1.09.14,2.08.47,2.97.99,1.21.72,2.17,1.7,2.87,2.95.66,1.18,1.01,2.53,1.05,4.01.38.16.77.31,1.17.44.04.02.09.03.13.04v-9.54h-8.44Z"/>
    <path class="cls-1" d="M57.09,31.26c-.57,0-1.12.05-1.66.14-.69.12-1.36.31-1.99.58-1.12.47-2.1,1.15-2.93,1.99-.66.67-1.21,1.44-1.64,2.3-.11.23-.22.46-.31.7-.45,1.13-.69,2.39-.69,3.74,0,.15,0,.3,0,.44.34-.08.67-.17.99-.28.05-.02.11-.03.16-.05.4-.14.79-.3,1.17-.47.03-.91.21-1.74.51-2.5.35-.85.83-1.61,1.45-2.24.62-.63,1.35-1.13,2.18-1.48.66-.28,1.36-.45,2.12-.5.15-.38.28-.78.39-1.19.08-.31.16-.63.21-.95l.02-.08.03-.14h-.03ZM56.54,50.11c-.14-.4-.31-.8-.5-1.18-.23-.45-.47-.89-.75-1.32-.6-.15-1.17-.38-1.72-.7-1.05-.61-1.86-1.44-2.46-2.51-.17-.3-.32-.62-.44-.96-.45-.23-.92-.44-1.4-.61-.13-.05-.26-.1-.4-.14-.28-.1-.57-.18-.87-.25.16.97.44,1.87.87,2.72.06.13.13.26.2.38.8,1.43,1.92,2.57,3.32,3.38,1.12.65,2.35,1.05,3.67,1.19.16.02.32.03.49.04,0-.01,0-.02-.02-.04ZM65.18,35.88c-.8-1.42-1.91-2.56-3.29-3.38-.92-.54-1.94-.91-3.05-1.1-.26-.04-.52-.07-.78-.1l.02.1.02.08c.07.35.14.69.24,1.02.12.43.26.85.42,1.25.71.14,1.37.4,1.96.74,1.04.62,1.84,1.44,2.45,2.52.47.84.76,1.79.86,2.83.39.23.79.43,1.21.61.38.16.77.31,1.17.44,0-.06,0-.12,0-.19,0-1.79-.4-3.41-1.2-4.83ZM64.88,43.25c-.56.26-1.1.57-1.61.91-.04.08-.08.16-.12.23-.61,1.08-1.41,1.9-2.45,2.52-.17.1-.35.2-.54.28-.35.49-.67,1.01-.94,1.55-.22.42-.41.85-.57,1.3,1.18-.17,2.26-.55,3.24-1.13,1.39-.82,2.49-1.95,3.29-3.38.49-.87.83-1.81,1.02-2.82-.45.15-.89.33-1.32.54ZM57.09,31.26c-.57,0-1.12.05-1.66.14-.69.12-1.36.31-1.99.58-1.12.47-2.1,1.15-2.93,1.99-.66.67-1.21,1.44-1.64,2.3-.11.23-.22.46-.31.7-.45,1.13-.69,2.39-.69,3.74,0,.15,0,.3,0,.44.34-.08.67-.17.99-.28.05-.02.11-.03.16-.05.4-.14.79-.3,1.17-.47.03-.91.21-1.74.51-2.5.35-.85.83-1.61,1.45-2.24.62-.63,1.35-1.13,2.18-1.48.66-.28,1.36-.45,2.12-.5.15-.38.28-.78.39-1.19.08-.31.16-.63.21-.95l.02-.08.03-.14h-.03ZM56.54,50.11c-.14-.4-.31-.8-.5-1.18-.23-.45-.47-.89-.75-1.32-.6-.15-1.17-.38-1.72-.7-1.05-.61-1.86-1.44-2.46-2.51-.17-.3-.32-.62-.44-.96-.45-.23-.92-.44-1.4-.61-.13-.05-.26-.1-.4-.14-.28-.1-.57-.18-.87-.25.16.97.44,1.87.87,2.72.06.13.13.26.2.38.8,1.43,1.92,2.57,3.32,3.38,1.12.65,2.35,1.05,3.67,1.19.16.02.32.03.49.04,0-.01,0-.02-.02-.04ZM65.18,35.88c-.8-1.42-1.91-2.56-3.29-3.38-.92-.54-1.94-.91-3.05-1.1-.26-.04-.52-.07-.78-.1l.02.1.02.08c.07.35.14.69.24,1.02.12.43.26.85.42,1.25.71.14,1.37.4,1.96.74,1.04.62,1.84,1.44,2.45,2.52.47.84.76,1.79.86,2.83.39.23.79.43,1.21.61.38.16.77.31,1.17.44,0-.06,0-.12,0-.19,0-1.79-.4-3.41-1.2-4.83ZM64.88,43.25c-.56.26-1.1.57-1.61.91-.04.08-.08.16-.12.23-.61,1.08-1.41,1.9-2.45,2.52-.17.1-.35.2-.54.28-.35.49-.67,1.01-.94,1.55-.22.42-.41.85-.57,1.3,1.18-.17,2.26-.55,3.24-1.13,1.39-.82,2.49-1.95,3.29-3.38.49-.87.83-1.81,1.02-2.82-.45.15-.89.33-1.32.54ZM57.09,31.26c-.57,0-1.12.05-1.66.14-.69.12-1.36.31-1.99.58-1.12.47-2.1,1.15-2.93,1.99-.66.67-1.21,1.44-1.64,2.3-.11.23-.22.46-.31.7-.45,1.13-.69,2.39-.69,3.74,0,.15,0,.3,0,.44.34-.08.67-.17.99-.28.05-.02.11-.03.16-.05.4-.14.79-.3,1.17-.47.03-.91.21-1.74.51-2.5.35-.85.83-1.61,1.45-2.24.62-.63,1.35-1.13,2.18-1.48.66-.28,1.36-.45,2.12-.5.15-.38.28-.78.39-1.19.08-.31.16-.63.21-.95l.02-.08.03-.14h-.03ZM56.54,50.11c-.14-.4-.31-.8-.5-1.18-.23-.45-.47-.89-.75-1.32-.6-.15-1.17-.38-1.72-.7-1.05-.61-1.86-1.44-2.46-2.51-.17-.3-.32-.62-.44-.96-.45-.23-.92-.44-1.4-.61-.13-.05-.26-.1-.4-.14-.28-.1-.57-.18-.87-.25.16.97.44,1.87.87,2.72.06.13.13.26.2.38.8,1.43,1.92,2.57,3.32,3.38,1.12.65,2.35,1.05,3.67,1.19.16.02.32.03.49.04,0-.01,0-.02-.02-.04ZM64.88,43.25c-.56.26-1.1.57-1.61.91-.04.08-.08.16-.12.23-.61,1.08-1.41,1.9-2.45,2.52-.17.1-.35.2-.54.28-.35.49-.67,1.01-.94,1.55-.22.42-.41.85-.57,1.3,1.18-.17,2.26-.55,3.24-1.13,1.39-.82,2.49-1.95,3.29-3.38.49-.87.83-1.81,1.02-2.82-.45.15-.89.33-1.32.54ZM65.18,35.88c-.8-1.42-1.91-2.56-3.29-3.38-.92-.54-1.94-.91-3.05-1.1-.26-.04-.52-.07-.78-.1l.02.1.02.08c.07.35.14.69.24,1.02.12.43.26.85.42,1.25.71.14,1.37.4,1.96.74,1.04.62,1.84,1.44,2.45,2.52.47.84.76,1.79.86,2.83.39.23.79.43,1.21.61.38.16.77.31,1.17.44,0-.06,0-.12,0-.19,0-1.79-.4-3.41-1.2-4.83ZM65.18,35.88c-.8-1.42-1.91-2.56-3.29-3.38-.92-.54-1.94-.91-3.05-1.1-.26-.04-.52-.07-.78-.1l.02.1.02.08c.07.35.14.69.24,1.02.12.43.26.85.42,1.25.71.14,1.37.4,1.96.74,1.04.62,1.84,1.44,2.45,2.52.47.84.76,1.79.86,2.83.39.23.79.43,1.21.61.38.16.77.31,1.17.44,0-.06,0-.12,0-.19,0-1.79-.4-3.41-1.2-4.83ZM64.88,43.25c-.56.26-1.1.57-1.61.91-.04.08-.08.16-.12.23-.61,1.08-1.41,1.9-2.45,2.52-.17.1-.35.2-.54.28-.35.49-.67,1.01-.94,1.55-.22.42-.41.85-.57,1.3,1.18-.17,2.26-.55,3.24-1.13,1.39-.82,2.49-1.95,3.29-3.38.49-.87.83-1.81,1.02-2.82-.45.15-.89.33-1.32.54ZM57.09,31.26c-.57,0-1.12.05-1.66.14-.69.12-1.36.31-1.99.58-1.12.47-2.1,1.15-2.93,1.99-.66.67-1.21,1.44-1.64,2.3-.11.23-.22.46-.31.7-.45,1.13-.69,2.39-.69,3.74,0,.15,0,.3,0,.44.34-.08.67-.17.99-.28.05-.02.11-.03.16-.05.4-.14.79-.3,1.17-.47.03-.91.21-1.74.51-2.5.35-.85.83-1.61,1.45-2.24.62-.63,1.35-1.13,2.18-1.48.66-.28,1.36-.45,2.12-.5.15-.38.28-.78.39-1.19.08-.31.16-.63.21-.95l.02-.08.03-.14h-.03ZM56.54,50.11c-.14-.4-.31-.8-.5-1.18-.23-.45-.47-.89-.75-1.32-.6-.15-1.17-.38-1.72-.7-1.05-.61-1.86-1.44-2.46-2.51-.17-.3-.32-.62-.44-.96-.45-.23-.92-.44-1.4-.61-.13-.05-.26-.1-.4-.14-.28-.1-.57-.18-.87-.25.16.97.44,1.87.87,2.72.06.13.13.26.2.38.8,1.43,1.92,2.57,3.32,3.38,1.12.65,2.35,1.05,3.67,1.19.16.02.32.03.49.04,0-.01,0-.02-.02-.04ZM56.54,50.11c-.14-.4-.31-.8-.5-1.18-.23-.45-.47-.89-.75-1.32-.6-.15-1.17-.38-1.72-.7-1.05-.61-1.86-1.44-2.46-2.51-.17-.3-.32-.62-.44-.96-.45-.23-.92-.44-1.4-.61-.13-.05-.26-.1-.4-.14-.28-.1-.57-.18-.87-.25.16.97.44,1.87.87,2.72.06.13.13.26.2.38.8,1.43,1.92,2.57,3.32,3.38,1.12.65,2.35,1.05,3.67,1.19.16.02.32.03.49.04,0-.01,0-.02-.02-.04ZM57.09,31.26c-.57,0-1.12.05-1.66.14-.69.12-1.36.31-1.99.58-1.12.47-2.1,1.15-2.93,1.99-.66.67-1.21,1.44-1.64,2.3-.11.23-.22.46-.31.7-.45,1.13-.69,2.39-.69,3.74,0,.15,0,.3,0,.44.34-.08.67-.17.99-.28.05-.02.11-.03.16-.05.4-.14.79-.3,1.17-.47.03-.91.21-1.74.51-2.5.35-.85.83-1.61,1.45-2.24.62-.63,1.35-1.13,2.18-1.48.66-.28,1.36-.45,2.12-.5.15-.38.28-.78.39-1.19.08-.31.16-.63.21-.95l.02-.08.03-.14h-.03ZM64.88,43.25c-.56.26-1.1.57-1.61.91-.04.08-.08.16-.12.23-.61,1.08-1.41,1.9-2.45,2.52-.17.1-.35.2-.54.28-.35.49-.67,1.01-.94,1.55-.22.42-.41.85-.57,1.3,1.18-.17,2.26-.55,3.24-1.13,1.39-.82,2.49-1.95,3.29-3.38.49-.87.83-1.81,1.02-2.82-.45.15-.89.33-1.32.54ZM65.18,35.88c-.8-1.42-1.91-2.56-3.29-3.38-.92-.54-1.94-.91-3.05-1.1-.26-.04-.52-.07-.78-.1l.02.1.02.08c.07.35.14.69.24,1.02.12.43.26.85.42,1.25.71.14,1.37.4,1.96.74,1.04.62,1.84,1.44,2.45,2.52.47.84.76,1.79.86,2.83.39.23.79.43,1.21.61.38.16.77.31,1.17.44,0-.06,0-.12,0-.19,0-1.79-.4-3.41-1.2-4.83ZM56.54,50.11c-.14-.4-.31-.8-.5-1.18-.23-.45-.47-.89-.75-1.32-.6-.15-1.17-.38-1.72-.7-1.05-.61-1.86-1.44-2.46-2.51-.17-.3-.32-.62-.44-.96-.45-.23-.92-.44-1.4-.61-.13-.05-.26-.1-.4-.14-.28-.1-.57-.18-.87-.25.16.97.44,1.87.87,2.72.06.13.13.26.2.38.8,1.43,1.92,2.57,3.32,3.38,1.12.65,2.35,1.05,3.67,1.19.16.02.32.03.49.04,0-.01,0-.02-.02-.04ZM57.09,31.26c-.57,0-1.12.05-1.66.14-.69.12-1.36.31-1.99.58-1.12.47-2.1,1.15-2.93,1.99-.66.67-1.21,1.44-1.64,2.3-.11.23-.22.46-.31.7-.45,1.13-.69,2.39-.69,3.74,0,.15,0,.3,0,.44.34-.08.67-.17.99-.28.05-.02.11-.03.16-.05.4-.14.79-.3,1.17-.47.03-.91.21-1.74.51-2.5.35-.85.83-1.61,1.45-2.24.62-.63,1.35-1.13,2.18-1.48.66-.28,1.36-.45,2.12-.5.15-.38.28-.78.39-1.19.08-.31.16-.63.21-.95l.02-.08.03-.14h-.03ZM64.88,43.25c-.56.26-1.1.57-1.61.91-.04.08-.08.16-.12.23-.61,1.08-1.41,1.9-2.45,2.52-.17.1-.35.2-.54.28-.35.49-.67,1.01-.94,1.55-.22.42-.41.85-.57,1.3,1.18-.17,2.26-.55,3.24-1.13,1.39-.82,2.49-1.95,3.29-3.38.49-.87.83-1.81,1.02-2.82-.45.15-.89.33-1.32.54ZM65.18,35.88c-.8-1.42-1.91-2.56-3.29-3.38-.92-.54-1.94-.91-3.05-1.1-.26-.04-.52-.07-.78-.1l.02.1.02.08c.07.35.14.69.24,1.02.12.43.26.85.42,1.25.71.14,1.37.4,1.96.74,1.04.62,1.84,1.44,2.45,2.52.47.84.76,1.79.86,2.83.39.23.79.43,1.21.61.38.16.77.31,1.17.44,0-.06,0-.12,0-.19,0-1.79-.4-3.41-1.2-4.83ZM56.54,50.11c-.14-.4-.31-.8-.5-1.18-.23-.45-.47-.89-.75-1.32-.6-.15-1.17-.38-1.72-.7-1.05-.61-1.86-1.44-2.46-2.51-.17-.3-.32-.62-.44-.96-.45-.23-.92-.44-1.4-.61-.13-.05-.26-.1-.4-.14-.28-.1-.57-.18-.87-.25.16.97.44,1.87.87,2.72.06.13.13.26.2.38.8,1.43,1.92,2.57,3.32,3.38,1.12.65,2.35,1.05,3.67,1.19.16.02.32.03.49.04,0-.01,0-.02-.02-.04ZM57.09,31.26c-.57,0-1.12.05-1.66.14-.69.12-1.36.31-1.99.58-1.12.47-2.1,1.15-2.93,1.99-.66.67-1.21,1.44-1.64,2.3-.11.23-.22.46-.31.7-.45,1.13-.69,2.39-.69,3.74,0,.15,0,.3,0,.44.34-.08.67-.17.99-.28.05-.02.11-.03.16-.05.4-.14.79-.3,1.17-.47.03-.91.21-1.74.51-2.5.35-.85.83-1.61,1.45-2.24.62-.63,1.35-1.13,2.18-1.48.66-.28,1.36-.45,2.12-.5.15-.38.28-.78.39-1.19.08-.31.16-.63.21-.95l.02-.08.03-.14h-.03ZM64.88,43.25c-.56.26-1.1.57-1.61.91-.04.08-.08.16-.12.23-.61,1.08-1.41,1.9-2.45,2.52-.17.1-.35.2-.54.28-.35.49-.67,1.01-.94,1.55-.22.42-.41.85-.57,1.3,1.18-.17,2.26-.55,3.24-1.13,1.39-.82,2.49-1.95,3.29-3.38.49-.87.83-1.81,1.02-2.82-.45.15-.89.33-1.32.54ZM65.18,35.88c-.8-1.42-1.91-2.56-3.29-3.38-.92-.54-1.94-.91-3.05-1.1-.26-.04-.52-.07-.78-.1l.02.1.02.08c.07.35.14.69.24,1.02.12.43.26.85.42,1.25.71.14,1.37.4,1.96.74,1.04.62,1.84,1.44,2.45,2.52.47.84.76,1.79.86,2.83.39.23.79.43,1.21.61.38.16.77.31,1.17.44,0-.06,0-.12,0-.19,0-1.79-.4-3.41-1.2-4.83ZM79.36,30.1c-1.57-2.95-3.79-5.3-6.6-7-2.82-1.69-6.14-2.55-9.88-2.55-2.3,0-4.54.36-6.65,1.08-2.13.72-4.01,1.78-5.6,3.15-.56.48-1.08,1-1.54,1.55.16-1.44.42-2.77.77-3.97.71-2.47,1.85-4.64,2.96-5.66,1.21-1.11,2.73-1.65,4.66-1.65,1.45,0,2.76.33,3.89.98,1.02.59,1.65,1.52,1.92,2.86l.19.93,17.64.03-.12-1.28c-.35-3.74-1.69-6.3-3.59-8.99-2.04-2.89-4.81-5.24-8.22-6.97C66.03,1.01,62.37.14,58.3.02h-.04c-.31,0-.62-.02-.94-.02-.38,0-.76,0-1.13.02-2.47.09-4.81.48-7.01,1.16-.94.29-1.84.63-2.72,1.03-.09.04-.19.09-.28.13-3.14,1.46-5.88,3.58-8.14,6.27-.97,1.16-1.85,2.42-2.64,3.79.29.28.59.53.9.77.31.24.63.47.96.68.76-1.36,1.62-2.61,2.56-3.75,2.1-2.51,4.66-4.46,7.6-5.79,1.88-.85,3.92-1.43,6.09-1.74.52-.07,1.04-.13,1.58-.17.49-.04.99-.07,1.5-.08.24,0,.48,0,.73,0,4.09,0,7.73.79,10.8,2.35,3.07,1.56,5.55,3.66,7.37,6.24,1.49,2.12,2.54,4.03,3,6.59l-13.17-.02c-.51-1.53-1.45-2.7-2.8-3.48-1.49-.85-3.19-1.29-5.05-1.29-2.51,0-4.6.76-6.24,2.26-1.43,1.31-2.79,3.83-3.62,6.73-.62,2.14-.97,4.61-1.05,7.36-.01.38-.02.77-.02,1.17v1.17h2.25l.3-.71c.07-.16.14-.31.21-.46.19-.4.41-.79.65-1.17.59-.93,1.33-1.78,2.19-2.52,1.36-1.17,2.99-2.08,4.83-2.71,1.86-.63,3.85-.96,5.9-.96,3.31,0,6.23.75,8.68,2.22,2.45,1.47,4.38,3.52,5.75,6.09,1.37,2.59,2.07,5.61,2.07,8.97,0,3.92-.94,7.39-2.79,10.32-1.85,2.93-4.46,5.23-7.74,6.85-3.31,1.63-7.21,2.46-11.6,2.46-3.24,0-6.36-.52-9.27-1.53-2.87-1.01-5.44-2.62-7.63-4.81-2.2-2.19-3.96-5.09-5.23-8.62-1.29-3.56-1.94-7.97-1.94-13.1,0-1.39.05-2.75.16-4.06.03-.41.07-.81.12-1.21.04-.41.09-.81.15-1.2.22-1.59.53-3.12.92-4.56-.74.87-1.36,1.85-1.84,2.91-.16.35-.3.71-.43,1.09-.13.37-.23.74-.32,1.13-.05.19-.09.37-.12.56l-.11.6-.39,2.1-.07-.36-.23-1.25c-.11,1.38-.17,2.8-.17,4.25,0,2.37.14,4.6.4,6.69.34,2.65.9,5.07,1.68,7.21,1.39,3.86,3.34,7.05,5.78,9.48,2.44,2.43,5.31,4.23,8.5,5.35,3.16,1.11,6.54,1.67,10.04,1.67,4.74,0,8.99-.91,12.63-2.7,3.67-1.81,6.59-4.4,8.68-7.69,2.09-3.3,3.15-7.19,3.15-11.56,0-3.75-.79-7.13-2.34-10.06ZM66.38,40.71c0-1.79-.4-3.41-1.2-4.83s-1.91-2.56-3.29-3.38c-.92-.54-1.94-.91-3.05-1.1-.26-.04-.52-.07-.78-.1l.02.1.02.08c.07.35.14.69.24,1.02.12.43.26.85.42,1.25.71.14,1.37.4,1.96.74,1.04.62,1.84,1.44,2.45,2.52.47.84.76,1.79.86,2.83.39.23.79.43,1.21.61.38.16.77.31,1.17.44,0-.06,0-.12,0-.19ZM63.27,44.17c-.04.08-.08.16-.12.23-.61,1.08-1.41,1.9-2.45,2.52-.17.1-.35.2-.54.28-.35.49-.67,1.01-.94,1.55-.22.42-.41.85-.57,1.3,1.18-.17,2.26-.55,3.24-1.13,1.39-.82,2.49-1.95,3.29-3.38.49-.87.83-1.81,1.02-2.82-.45.15-.89.33-1.32.54-.56.26-1.1.57-1.61.91ZM57.08,31.48l.02-.08.03-.14h-.03c-.57,0-1.12.05-1.66.14-.69.12-1.36.31-1.99.58-1.12.47-2.1,1.15-2.93,1.99-.66.67-1.21,1.44-1.64,2.3-.11.23-.22.46-.31.7-.45,1.13-.69,2.39-.69,3.74,0,.15,0,.3,0,.44.34-.08.67-.17.99-.28.05-.02.11-.03.16-.05.4-.14.79-.3,1.17-.47.03-.91.21-1.74.51-2.5.35-.85.83-1.61,1.45-2.24.62-.63,1.35-1.13,2.18-1.48.66-.28,1.36-.45,2.12-.5.15-.38.28-.78.39-1.19.08-.31.16-.63.21-.95ZM55.29,47.61c-.6-.15-1.17-.38-1.72-.7-1.05-.61-1.86-1.44-2.46-2.51-.17-.3-.32-.62-.44-.96-.45-.23-.92-.44-1.4-.61-.13-.05-.26-.1-.4-.14-.28-.1-.57-.18-.87-.25.16.97.44,1.87.87,2.72.06.13.13.26.2.38.8,1.43,1.92,2.57,3.32,3.38,1.12.65,2.35,1.05,3.67,1.19.16.02.32.03.49.04,0-.01,0-.02-.02-.04-.14-.4-.31-.8-.5-1.18-.23-.45-.47-.89-.75-1.32ZM65.18,35.88c-.8-1.42-1.91-2.56-3.29-3.38-.92-.54-1.94-.91-3.05-1.1-.26-.04-.52-.07-.78-.1l.02.1.02.08c.07.35.14.69.24,1.02.12.43.26.85.42,1.25.71.14,1.37.4,1.96.74,1.04.62,1.84,1.44,2.45,2.52.47.84.76,1.79.86,2.83.39.23.79.43,1.21.61.38.16.77.31,1.17.44,0-.06,0-.12,0-.19,0-1.79-.4-3.41-1.2-4.83ZM64.88,43.25c-.56.26-1.1.57-1.61.91-.04.08-.08.16-.12.23-.61,1.08-1.41,1.9-2.45,2.52-.17.1-.35.2-.54.28-.35.49-.67,1.01-.94,1.55-.22.42-.41.85-.57,1.3,1.18-.17,2.26-.55,3.24-1.13,1.39-.82,2.49-1.95,3.29-3.38.49-.87.83-1.81,1.02-2.82-.45.15-.89.33-1.32.54ZM57.09,31.26c-.57,0-1.12.05-1.66.14-.69.12-1.36.31-1.99.58-1.12.47-2.1,1.15-2.93,1.99-.66.67-1.21,1.44-1.64,2.3-.11.23-.22.46-.31.7-.45,1.13-.69,2.39-.69,3.74,0,.15,0,.3,0,.44.34-.08.67-.17.99-.28.05-.02.11-.03.16-.05.4-.14.79-.3,1.17-.47.03-.91.21-1.74.51-2.5.35-.85.83-1.61,1.45-2.24.62-.63,1.35-1.13,2.18-1.48.66-.28,1.36-.45,2.12-.5.15-.38.28-.78.39-1.19.08-.31.16-.63.21-.95l.02-.08.03-.14h-.03ZM56.54,50.11c-.14-.4-.31-.8-.5-1.18-.23-.45-.47-.89-.75-1.32-.6-.15-1.17-.38-1.72-.7-1.05-.61-1.86-1.44-2.46-2.51-.17-.3-.32-.62-.44-.96-.45-.23-.92-.44-1.4-.61-.13-.05-.26-.1-.4-.14-.28-.1-.57-.18-.87-.25.16.97.44,1.87.87,2.72.06.13.13.26.2.38.8,1.43,1.92,2.57,3.32,3.38,1.12.65,2.35,1.05,3.67,1.19.16.02.32.03.49.04,0-.01,0-.02-.02-.04ZM65.18,35.88c-.8-1.42-1.91-2.56-3.29-3.38-.92-.54-1.94-.91-3.05-1.1-.26-.04-.52-.07-.78-.1l.02.1.02.08c.07.35.14.69.24,1.02.12.43.26.85.42,1.25.71.14,1.37.4,1.96.74,1.04.62,1.84,1.44,2.45,2.52.47.84.76,1.79.86,2.83.39.23.79.43,1.21.61.38.16.77.31,1.17.44,0-.06,0-.12,0-.19,0-1.79-.4-3.41-1.2-4.83ZM64.88,43.25c-.56.26-1.1.57-1.61.91-.04.08-.08.16-.12.23-.61,1.08-1.41,1.9-2.45,2.52-.17.1-.35.2-.54.28-.35.49-.67,1.01-.94,1.55-.22.42-.41.85-.57,1.3,1.18-.17,2.26-.55,3.24-1.13,1.39-.82,2.49-1.95,3.29-3.38.49-.87.83-1.81,1.02-2.82-.45.15-.89.33-1.32.54ZM57.09,31.26c-.57,0-1.12.05-1.66.14-.69.12-1.36.31-1.99.58-1.12.47-2.1,1.15-2.93,1.99-.66.67-1.21,1.44-1.64,2.3-.11.23-.22.46-.31.7-.45,1.13-.69,2.39-.69,3.74,0,.15,0,.3,0,.44.34-.08.67-.17.99-.28.05-.02.11-.03.16-.05.4-.14.79-.3,1.17-.47.03-.91.21-1.74.51-2.5.35-.85.83-1.61,1.45-2.24.62-.63,1.35-1.13,2.18-1.48.66-.28,1.36-.45,2.12-.5.15-.38.28-.78.39-1.19.08-.31.16-.63.21-.95l.02-.08.03-.14h-.03ZM56.54,50.11c-.14-.4-.31-.8-.5-1.18-.23-.45-.47-.89-.75-1.32-.6-.15-1.17-.38-1.72-.7-1.05-.61-1.86-1.44-2.46-2.51-.17-.3-.32-.62-.44-.96-.45-.23-.92-.44-1.4-.61-.13-.05-.26-.1-.4-.14-.28-.1-.57-.18-.87-.25.16.97.44,1.87.87,2.72.06.13.13.26.2.38.8,1.43,1.92,2.57,3.32,3.38,1.12.65,2.35,1.05,3.67,1.19.16.02.32.03.49.04,0-.01,0-.02-.02-.04ZM56.54,50.11c-.14-.4-.31-.8-.5-1.18-.23-.45-.47-.89-.75-1.32-.6-.15-1.17-.38-1.72-.7-1.05-.61-1.86-1.44-2.46-2.51-.17-.3-.32-.62-.44-.96-.45-.23-.92-.44-1.4-.61-.13-.05-.26-.1-.4-.14-.28-.1-.57-.18-.87-.25.16.97.44,1.87.87,2.72.06.13.13.26.2.38.8,1.43,1.92,2.57,3.32,3.38,1.12.65,2.35,1.05,3.67,1.19.16.02.32.03.49.04,0-.01,0-.02-.02-.04ZM57.09,31.26c-.57,0-1.12.05-1.66.14-.69.12-1.36.31-1.99.58-1.12.47-2.1,1.15-2.93,1.99-.66.67-1.21,1.44-1.64,2.3-.11.23-.22.46-.31.7-.45,1.13-.69,2.39-.69,3.74,0,.15,0,.3,0,.44.34-.08.67-.17.99-.28.05-.02.11-.03.16-.05.4-.14.79-.3,1.17-.47.03-.91.21-1.74.51-2.5.35-.85.83-1.61,1.45-2.24.62-.63,1.35-1.13,2.18-1.48.66-.28,1.36-.45,2.12-.5.15-.38.28-.78.39-1.19.08-.31.16-.63.21-.95l.02-.08.03-.14h-.03ZM64.88,43.25c-.56.26-1.1.57-1.61.91-.04.08-.08.16-.12.23-.61,1.08-1.41,1.9-2.45,2.52-.17.1-.35.2-.54.28-.35.49-.67,1.01-.94,1.55-.22.42-.41.85-.57,1.3,1.18-.17,2.26-.55,3.24-1.13,1.39-.82,2.49-1.95,3.29-3.38.49-.87.83-1.81,1.02-2.82-.45.15-.89.33-1.32.54ZM65.18,35.88c-.8-1.42-1.91-2.56-3.29-3.38-.92-.54-1.94-.91-3.05-1.1-.26-.04-.52-.07-.78-.1l.02.1.02.08c.07.35.14.69.24,1.02.12.43.26.85.42,1.25.71.14,1.37.4,1.96.74,1.04.62,1.84,1.44,2.45,2.52.47.84.76,1.79.86,2.83.39.23.79.43,1.21.61.38.16.77.31,1.17.44,0-.06,0-.12,0-.19,0-1.79-.4-3.41-1.2-4.83ZM65.18,35.88c-.8-1.42-1.91-2.56-3.29-3.38-.92-.54-1.94-.91-3.05-1.1-.26-.04-.52-.07-.78-.1l.02.1.02.08c.07.35.14.69.24,1.02.12.43.26.85.42,1.25.71.14,1.37.4,1.96.74,1.04.62,1.84,1.44,2.45,2.52.47.84.76,1.79.86,2.83.39.23.79.43,1.21.61.38.16.77.31,1.17.44,0-.06,0-.12,0-.19,0-1.79-.4-3.41-1.2-4.83ZM64.88,43.25c-.56.26-1.1.57-1.61.91-.04.08-.08.16-.12.23-.61,1.08-1.41,1.9-2.45,2.52-.17.1-.35.2-.54.28-.35.49-.67,1.01-.94,1.55-.22.42-.41.85-.57,1.3,1.18-.17,2.26-.55,3.24-1.13,1.39-.82,2.49-1.95,3.29-3.38.49-.87.83-1.81,1.02-2.82-.45.15-.89.33-1.32.54ZM57.09,31.26c-.57,0-1.12.05-1.66.14-.69.12-1.36.31-1.99.58-1.12.47-2.1,1.15-2.93,1.99-.66.67-1.21,1.44-1.64,2.3-.11.23-.22.46-.31.7-.45,1.13-.69,2.39-.69,3.74,0,.15,0,.3,0,.44.34-.08.67-.17.99-.28.05-.02.11-.03.16-.05.4-.14.79-.3,1.17-.47.03-.91.21-1.74.51-2.5.35-.85.83-1.61,1.45-2.24.62-.63,1.35-1.13,2.18-1.48.66-.28,1.36-.45,2.12-.5.15-.38.28-.78.39-1.19.08-.31.16-.63.21-.95l.02-.08.03-.14h-.03ZM56.54,50.11c-.14-.4-.31-.8-.5-1.18-.23-.45-.47-.89-.75-1.32-.6-.15-1.17-.38-1.72-.7-1.05-.61-1.86-1.44-2.46-2.51-.17-.3-.32-.62-.44-.96-.45-.23-.92-.44-1.4-.61-.13-.05-.26-.1-.4-.14-.28-.1-.57-.18-.87-.25.16.97.44,1.87.87,2.72.06.13.13.26.2.38.8,1.43,1.92,2.57,3.32,3.38,1.12.65,2.35,1.05,3.67,1.19.16.02.32.03.49.04,0-.01,0-.02-.02-.04ZM57.09,31.26c-.57,0-1.12.05-1.66.14-.69.12-1.36.31-1.99.58-1.12.47-2.1,1.15-2.93,1.99-.66.67-1.21,1.44-1.64,2.3-.11.23-.22.46-.31.7-.45,1.13-.69,2.39-.69,3.74,0,.15,0,.3,0,.44.34-.08.67-.17.99-.28.05-.02.11-.03.16-.05.4-.14.79-.3,1.17-.47.03-.91.21-1.74.51-2.5.35-.85.83-1.61,1.45-2.24.62-.63,1.35-1.13,2.18-1.48.66-.28,1.36-.45,2.12-.5.15-.38.28-.78.39-1.19.08-.31.16-.63.21-.95l.02-.08.03-.14h-.03ZM56.54,50.11c-.14-.4-.31-.8-.5-1.18-.23-.45-.47-.89-.75-1.32-.6-.15-1.17-.38-1.72-.7-1.05-.61-1.86-1.44-2.46-2.51-.17-.3-.32-.62-.44-.96-.45-.23-.92-.44-1.4-.61-.13-.05-.26-.1-.4-.14-.28-.1-.57-.18-.87-.25.16.97.44,1.87.87,2.72.06.13.13.26.2.38.8,1.43,1.92,2.57,3.32,3.38,1.12.65,2.35,1.05,3.67,1.19.16.02.32.03.49.04,0-.01,0-.02-.02-.04ZM64.88,43.25c-.56.26-1.1.57-1.61.91-.04.08-.08.16-.12.23-.61,1.08-1.41,1.9-2.45,2.52-.17.1-.35.2-.54.28-.35.49-.67,1.01-.94,1.55-.22.42-.41.85-.57,1.3,1.18-.17,2.26-.55,3.24-1.13,1.39-.82,2.49-1.95,3.29-3.38.49-.87.83-1.81,1.02-2.82-.45.15-.89.33-1.32.54ZM65.18,35.88c-.8-1.42-1.91-2.56-3.29-3.38-.92-.54-1.94-.91-3.05-1.1-.26-.04-.52-.07-.78-.1l.02.1.02.08c.07.35.14.69.24,1.02.12.43.26.85.42,1.25.71.14,1.37.4,1.96.74,1.04.62,1.84,1.44,2.45,2.52.47.84.76,1.79.86,2.83.39.23.79.43,1.21.61.38.16.77.31,1.17.44,0-.06,0-.12,0-.19,0-1.79-.4-3.41-1.2-4.83ZM57.09,31.26c-.57,0-1.12.05-1.66.14-.69.12-1.36.31-1.99.58-1.12.47-2.1,1.15-2.93,1.99-.66.67-1.21,1.44-1.64,2.3-.11.23-.22.46-.31.7-.45,1.13-.69,2.39-.69,3.74,0,.15,0,.3,0,.44.34-.08.67-.17.99-.28.05-.02.11-.03.16-.05.4-.14.79-.3,1.17-.47.03-.91.21-1.74.51-2.5.35-.85.83-1.61,1.45-2.24.62-.63,1.35-1.13,2.18-1.48.66-.28,1.36-.45,2.12-.5.15-.38.28-.78.39-1.19.08-.31.16-.63.21-.95l.02-.08.03-.14h-.03ZM56.54,50.11c-.14-.4-.31-.8-.5-1.18-.23-.45-.47-.89-.75-1.32-.6-.15-1.17-.38-1.72-.7-1.05-.61-1.86-1.44-2.46-2.51-.17-.3-.32-.62-.44-.96-.45-.23-.92-.44-1.4-.61-.13-.05-.26-.1-.4-.14-.28-.1-.57-.18-.87-.25.16.97.44,1.87.87,2.72.06.13.13.26.2.38.8,1.43,1.92,2.57,3.32,3.38,1.12.65,2.35,1.05,3.67,1.19.16.02.32.03.49.04,0-.01,0-.02-.02-.04ZM65.18,35.88c-.8-1.42-1.91-2.56-3.29-3.38-.92-.54-1.94-.91-3.05-1.1-.26-.04-.52-.07-.78-.1l.02.1.02.08c.07.35.14.69.24,1.02.12.43.26.85.42,1.25.71.14,1.37.4,1.96.74,1.04.62,1.84,1.44,2.45,2.52.47.84.76,1.79.86,2.83.39.23.79.43,1.21.61.38.16.77.31,1.17.44,0-.06,0-.12,0-.19,0-1.79-.4-3.41-1.2-4.83ZM64.88,43.25c-.56.26-1.1.57-1.61.91-.04.08-.08.16-.12.23-.61,1.08-1.41,1.9-2.45,2.52-.17.1-.35.2-.54.28-.35.49-.67,1.01-.94,1.55-.22.42-.41.85-.57,1.3,1.18-.17,2.26-.55,3.24-1.13,1.39-.82,2.49-1.95,3.29-3.38.49-.87.83-1.81,1.02-2.82-.45.15-.89.33-1.32.54ZM57.09,31.26c-.57,0-1.12.05-1.66.14-.69.12-1.36.31-1.99.58-1.12.47-2.1,1.15-2.93,1.99-.66.67-1.21,1.44-1.64,2.3-.11.23-.22.46-.31.7-.45,1.13-.69,2.39-.69,3.74,0,.15,0,.3,0,.44.34-.08.67-.17.99-.28.05-.02.11-.03.16-.05.4-.14.79-.3,1.17-.47.03-.91.21-1.74.51-2.5.35-.85.83-1.61,1.45-2.24.62-.63,1.35-1.13,2.18-1.48.66-.28,1.36-.45,2.12-.5.15-.38.28-.78.39-1.19.08-.31.16-.63.21-.95l.02-.08.03-.14h-.03ZM56.54,50.11c-.14-.4-.31-.8-.5-1.18-.23-.45-.47-.89-.75-1.32-.6-.15-1.17-.38-1.72-.7-1.05-.61-1.86-1.44-2.46-2.51-.17-.3-.32-.62-.44-.96-.45-.23-.92-.44-1.4-.61-.13-.05-.26-.1-.4-.14-.28-.1-.57-.18-.87-.25.16.97.44,1.87.87,2.72.06.13.13.26.2.38.8,1.43,1.92,2.57,3.32,3.38,1.12.65,2.35,1.05,3.67,1.19.16.02.32.03.49.04,0-.01,0-.02-.02-.04ZM65.18,35.88c-.8-1.42-1.91-2.56-3.29-3.38-.92-.54-1.94-.91-3.05-1.1-.26-.04-.52-.07-.78-.1l.02.1.02.08c.07.35.14.69.24,1.02.12.43.26.85.42,1.25.71.14,1.37.4,1.96.74,1.04.62,1.84,1.44,2.45,2.52.47.84.76,1.79.86,2.83.39.23.79.43,1.21.61.38.16.77.31,1.17.44,0-.06,0-.12,0-.19,0-1.79-.4-3.41-1.2-4.83ZM64.88,43.25c-.56.26-1.1.57-1.61.91-.04.08-.08.16-.12.23-.61,1.08-1.41,1.9-2.45,2.52-.17.1-.35.2-.54.28-.35.49-.67,1.01-.94,1.55-.22.42-.41.85-.57,1.3,1.18-.17,2.26-.55,3.24-1.13,1.39-.82,2.49-1.95,3.29-3.38.49-.87.83-1.81,1.02-2.82-.45.15-.89.33-1.32.54ZM57.09,31.26c-.57,0-1.12.05-1.66.14-.69.12-1.36.31-1.99.58-1.12.47-2.1,1.15-2.93,1.99-.66.67-1.21,1.44-1.64,2.3-.11.23-.22.46-.31.7-.45,1.13-.69,2.39-.69,3.74,0,.15,0,.3,0,.44.34-.08.67-.17.99-.28.05-.02.11-.03.16-.05.4-.14.79-.3,1.17-.47.03-.91.21-1.74.51-2.5.35-.85.83-1.61,1.45-2.24.62-.63,1.35-1.13,2.18-1.48.66-.28,1.36-.45,2.12-.5.15-.38.28-.78.39-1.19.08-.31.16-.63.21-.95l.02-.08.03-.14h-.03ZM56.54,50.11c-.14-.4-.31-.8-.5-1.18-.23-.45-.47-.89-.75-1.32-.6-.15-1.17-.38-1.72-.7-1.05-.61-1.86-1.44-2.46-2.51-.17-.3-.32-.62-.44-.96-.45-.23-.92-.44-1.4-.61-.13-.05-.26-.1-.4-.14-.28-.1-.57-.18-.87-.25.16.97.44,1.87.87,2.72.06.13.13.26.2.38.8,1.43,1.92,2.57,3.32,3.38,1.12.65,2.35,1.05,3.67,1.19.16.02.32.03.49.04,0-.01,0-.02-.02-.04ZM65.18,35.88c-.8-1.42-1.91-2.56-3.29-3.38-.92-.54-1.94-.91-3.05-1.1-.26-.04-.52-.07-.78-.1l.02.1.02.08c.07.35.14.69.24,1.02.12.43.26.85.42,1.25.71.14,1.37.4,1.96.74,1.04.62,1.84,1.44,2.45,2.52.47.84.76,1.79.86,2.83.39.23.79.43,1.21.61.38.16.77.31,1.17.44,0-.06,0-.12,0-.19,0-1.79-.4-3.41-1.2-4.83ZM64.88,43.25c-.56.26-1.1.57-1.61.91-.04.08-.08.16-.12.23-.61,1.08-1.41,1.9-2.45,2.52-.17.1-.35.2-.54.28-.35.49-.67,1.01-.94,1.55-.22.42-.41.85-.57,1.3,1.18-.17,2.26-.55,3.24-1.13,1.39-.82,2.49-1.95,3.29-3.38.49-.87.83-1.81,1.02-2.82-.45.15-.89.33-1.32.54Z"/>
  </g>
  <g>
    <path class="cls-1" d="M67.68,42.32v8.95h-9.41c.1-.4.22-.78.36-1.17h-.47c.17-.02.33-.03.5-.06.16-.45.35-.88.57-1.3.27-.54.59-1.06.94-1.55.84-1.19,1.9-2.21,3.11-3.03.51-.34,1.05-.65,1.61-.91.43-.21.87-.38,1.32-.54.1-.03.21-.07.31-.1.38-.12.77-.22,1.17-.3Z"/>
    <path class="cls-1" d="M56.9,51.27h-9.19v-8.9c.1.02.2.04.3.07.3.07.58.16.87.25.14.04.27.09.4.14.48.17.95.38,1.4.61,1.88.97,3.47,2.41,4.62,4.17.28.42.52.86.75,1.32.19.38.35.77.5,1.18,0,.01.01.02.02.04.13.37.25.75.35,1.13Z"/>
    <path class="cls-1" d="M57.31,30.23l-.19,1.03-.03.14-.02.08c-.06.32-.13.64-.21.95-.11.4-.24.8-.39,1.19-1.14,2.98-3.4,5.38-6.26,6.72-.38.18-.77.33-1.17.47-.05.02-.11.04-.16.05-.32.11-.66.2-.99.28-.05.02-.11.03-.17.04v-10.95h9.6Z"/>
    <path class="cls-1" d="M67.68,30.23v11c-.4-.08-.78-.17-1.17-.3-.05-.01-.09-.03-.13-.04-.4-.12-.78-.27-1.17-.44-.42-.18-.82-.38-1.21-.61-2.37-1.37-4.24-3.51-5.26-6.09-.16-.41-.3-.83-.42-1.25-.09-.33-.17-.68-.24-1.02l-.02-.08-.02-.1-.2-1.06h9.83Z"/>
    <path class="cls-1" d="M67.88,42.28c-.07.01-.14.03-.2.04-.4.08-.78.17-1.17.3v7.49h-7.89c-.14.38-.26.77-.36,1.17-.07.26-.13.53-.18.8l-.07.37h10.82v-10.34l-.96.18ZM46.55,29.07v12.34l.74-.14c.14-.03.28-.05.42-.09.06-.01.12-.02.17-.04.34-.08.67-.17.99-.28v-9.47h8.22l.03-.14.19-1.03.21-1.17h-10.98ZM57.08,52.07c-.05-.27-.11-.54-.18-.8-.1-.38-.21-.76-.35-1.13,0-.01,0-.02-.02-.04h-7.66v-7.42c-.28-.1-.57-.18-.87-.25-.1-.03-.2-.05-.3-.07-.14-.04-.28-.06-.42-.09l-.74-.14v10.3h10.6l-.07-.37ZM57.64,29.07l.21,1.17.2,1.06.02.1h8.44v9.54c.38.12.77.22,1.17.3.07.02.14.03.2.04l.96.18v-12.39h-11.2Z"/>
  </g>
  <path class="cls-1" d="M58.65,50.05s-.02.04-.02.06h-.47c.17-.02.33-.03.5-.06Z"/>
</svg>